# xmcd
#
# Track frame offsets:
#	150
#	9550
#	21856
#	34561
#	49696
#	64521
#	75296
#	82212
#	101037
#	117527
#	143669
#
# Disc length: 1980 seconds
#
# Revision: 0
# Processed by: cddbd v1.5.2PL0 Copyright (c) Steve Scherf et al.
# Submitted via: EasyCDDAExtractor 16.0.8.2
#
DISCID=8407ba0b
DTITLE=Άνευ ερμηνευτού - Μίκης Θεοδωράκης 3 Ιφιγένεια
DYEAR=2004
DGENRE=Κινηματογραφική
TTITLE0=Άνευ ερμηνευτού - Σουίτα για την Ιφιγένεια 1
TTITLE1=Άνευ ερμηνευτού - Σουίτα για την Ιφιγένεια 2
TTITLE2=Άνευ ερμηνευτού - Σουίτα για την Ιφιγένεια 3
TTITLE3=Άνευ ερμηνευτού - Σουίτα για την Ιφιγένεια 4
TTITLE4=Άνευ ερμηνευτού - Σουίτα για την Ιφιγένεια 5
TTITLE5=Άνευ ερμηνευτού - Σουίτα για την Ιφιγένεια 6
TTITLE6=Άνευ ερμηνευτού - Σουίτα για την Ιφιγένεια 7
TTITLE7=Άνευ ερμηνευτού - Σουίτα για την Ιφιγένεια 8
TTITLE8=Άνευ ερμηνευτού - Σουίτα για την Ιφιγένεια 9
TTITLE9=Άνευ ερμηνευτού - Σουίτα για την Ιφιγένεια 10
TTITLE10=Χορωδία - Σουίτα για την Ιφιγένεια 11
EXTD=
EXTT0=
EXTT1=
EXTT2=
EXTT3=
EXTT4=
EXTT5=
EXTT6=
EXTT7=
EXTT8=
EXTT9=
EXTT10=
PLAYORDER=
